<svg data-v-423bf9ae="" xmlns="http://www.w3.org/2000/svg" viewBox="0 0 234 90" class="iconLeft"><!----><!----><!----><g data-v-423bf9ae="" id="2ad137c3-8817-4049-9b9a-fb95d6faeaee" fill="white" transform="matrix(6.054490506946714,0,0,6.054490506946714,70.0394577361105,10.761857849800698)"><path d="M0.63 0.70L0.49 1.33L1.82 1.60L1.82 9.60L0.49 10.01L0.49 10.50L4.41 10.50L4.55 9.87L3.22 9.60L3.22 6.48L4.12 6.48C4.37 6.48 4.63 6.47 4.91 6.44L7.29 10.50L9.41 10.50L9.55 9.87L8.41 9.65L6.27 6.12C7.27 5.75 8.05 4.98 8.05 3.68C8.05 0.99 5.82 0.70 4.12 0.70ZM4.12 1.47C5.31 1.47 6.58 1.86 6.58 3.68C6.58 5.43 5.31 5.71 4.12 5.71L3.22 5.71L3.22 1.47ZM10.95 8.04C10.96 9.83 11.73 10.61 13.08 10.61C13.85 10.61 14.87 10.21 15.50 9.44L15.50 10.50L17.72 10.50L17.88 9.88L16.74 9.63L16.74 3.21L14.57 3.21L14.43 3.88L15.50 4.07L15.50 8.75C15.13 9.18 14.29 9.46 13.55 9.46C12.66 9.46 12.21 9.16 12.21 7.76L12.21 3.21L9.97 3.21L9.83 3.84L10.95 4.07ZM25.84 5.67C25.80 3.88 25.06 3.09 23.72 3.09C22.95 3.09 21.92 3.50 21.29 4.27L21.29 3.12L18.82 3.46L18.89 4.07L20.05 4.30L20.05 9.66L18.83 10.08L18.83 10.50L22.22 10.50L22.36 9.83L21.29 9.63L21.29 4.96C21.66 4.52 22.50 4.24 23.24 4.24C24.14 4.24 24.58 4.55 24.58 5.95L24.58 9.66L23.51 10.08L23.51 10.50L26.82 10.50L26.96 9.87L25.84 9.63Z"></path></g><!----><g data-v-423bf9ae="" id="ff2ebdac-fd5c-4e20-8025-e6dd8f526f9e" transform="matrix(2.208588957055215,0,0,2.208588957055215,-63.55214624463416,-48.588957055214735)" stroke="none" fill="white"><path d="M50.627 55H43v-2h7.627a.373.373 0 0 0 .373-.374V24.374a.373.373 0 0 0-.373-.374H31v30h-2V22h21.627A2.376 2.376 0 0 1 53 24.374v28.253A2.376 2.376 0 0 1 50.627 55z"></path><path d="M42.606 62.75c-.244 0-.483-.068-.692-.198l-12.291-7.608a1.31 1.31 0 0 1-.623-1.12V23.567a1.318 1.318 0 0 1 2.008-1.118L43.3 30.057c.39.239.624.658.624 1.119v30.257c0 .726-.591 1.317-1.318 1.317zM31 53.443l10.924 6.762V31.558L31 24.795v28.648z"></path><path d="M39 42h2v4h-2z"></path></g><!----></svg>