<svg data-v-423bf9ae="" xmlns="http://www.w3.org/2000/svg" viewBox="0 0 160.2623595615908 60" class="font"><!----><!----><!----><g data-v-423bf9ae="" id="d0c1ef2c-db13-46c6-ba9c-34fabe58320b" fill="white" transform="matrix(6.054490506946714,0,0,6.054490506946714,-2.9666991852762123,-4.2381440575479346)"><path d="M0.63 0.70L0.49 1.33L1.82 1.60L1.82 9.60L0.49 10.01L0.49 10.50L4.41 10.50L4.55 9.87L3.22 9.60L3.22 6.48L4.12 6.48C4.37 6.48 4.63 6.47 4.91 6.44L7.29 10.50L9.41 10.50L9.55 9.87L8.41 9.65L6.27 6.12C7.27 5.75 8.05 4.98 8.05 3.68C8.05 0.99 5.82 0.70 4.12 0.70ZM4.12 1.47C5.31 1.47 6.58 1.86 6.58 3.68C6.58 5.43 5.31 5.71 4.12 5.71L3.22 5.71L3.22 1.47ZM10.95 8.04C10.96 9.83 11.73 10.61 13.08 10.61C13.85 10.61 14.87 10.21 15.50 9.44L15.50 10.50L17.72 10.50L17.88 9.88L16.74 9.63L16.74 3.21L14.57 3.21L14.43 3.88L15.50 4.07L15.50 8.75C15.13 9.18 14.29 9.46 13.55 9.46C12.66 9.46 12.21 9.16 12.21 7.76L12.21 3.21L9.97 3.21L9.83 3.84L10.95 4.07ZM25.84 5.67C25.80 3.88 25.06 3.09 23.72 3.09C22.95 3.09 21.92 3.50 21.29 4.27L21.29 3.12L18.82 3.46L18.89 4.07L20.05 4.30L20.05 9.66L18.83 10.08L18.83 10.50L22.22 10.50L22.36 9.83L21.29 9.63L21.29 4.96C21.66 4.52 22.50 4.24 23.24 4.24C24.14 4.24 24.58 4.55 24.58 5.95L24.58 9.66L23.51 10.08L23.51 10.50L26.82 10.50L26.96 9.87L25.84 9.63Z"></path></g><!----><!----></svg>